<svg width="40" height="40" viewBox="0 0 40 40" fill="#ffffff" xmlns="http://www.w3.org/2000/svg">
<path fill-rule="evenodd" clip-rule="evenodd" d="M3.96166 20C3.96166 19.2458 4.01403 18.5042 4.11509 17.7778L0.501429 15.696C0.0220708 15.4199 -0.142364 14.8083 0.134386 14.3301L5.14574 5.66992C5.42274 5.19165 6.0357 5.02759 6.51506 5.30396L10.1307 7.38672C11.2971 6.47681 12.593 5.72461 13.9863 5.16211V1C13.9863 0.447754 14.4351 0 14.9886 0H25.0113C25.5648 0 26.0136 0.447754 26.0136 1V5.16382C27.4062 5.72632 28.7013 6.47852 29.8671 7.38794L33.4851 5.30396C33.9645 5.02759 34.5774 5.19165 34.8542 5.66992L39.8656 14.3301C40.1423 14.8083 39.9781 15.4199 39.4988 15.696L35.8812 17.78C35.9822 18.5056 36.0344 19.2466 36.0344 20C36.0344 20.7534 35.9822 21.4944 35.8812 22.22L39.4988 24.304C39.9781 24.5801 40.1423 25.1917 39.8656 25.6699L34.8542 34.3301C34.5774 34.8083 33.9645 34.9724 33.4851 34.696L29.8671 32.6121C28.7013 33.5215 27.4062 34.2737 26.0136 34.8362V39C26.0136 39.5522 25.5648 40 25.0113 40H14.9886C14.4351 40 13.9863 39.5522 13.9863 39V34.8379C12.593 34.2754 11.2971 33.5232 10.1307 32.6133L6.51506 34.696C6.0357 34.9724 5.42274 34.8083 5.14574 34.3301L0.134386 25.6699C-0.142364 25.1917 0.0220708 24.5801 0.501429 24.304L4.11509 22.2222C4.01403 21.4958 3.96166 20.7542 3.96166 20ZM22.0026 4H17.9935V8.16602C15.0867 8.65234 12.5336 10.1792 10.7316 12.3494L7.1153 10.2661L5.11075 13.7302L8.72368 15.8115C8.23673 17.1155 7.97075 18.5269 7.97075 20C7.97075 21.4719 8.23624 22.8818 8.72221 24.1848L5.1088 26.2661L7.11334 29.7302L10.729 27.6475C12.5311 29.8193 15.0853 31.3474 17.9935 31.834V36H22.0026V31.834C24.9112 31.3472 27.4659 29.8186 29.268 27.646L32.8866 29.7302L34.8911 26.2661L31.2743 24.1829C31.7598 22.8804 32.0253 21.4712 32.0253 20C32.0253 18.5273 31.7593 17.1169 31.2731 15.8135L34.8892 13.7302L32.8846 10.2661L29.2656 12.3508C27.4634 10.1799 24.9098 8.65259 22.0026 8.16602V4ZM11.9798 20C11.9798 24.4182 15.5698 28 19.998 28C24.4263 28 28.0162 24.4182 28.0162 20C28.0162 15.5818 24.4263 12 19.998 12C15.5698 12 11.9798 15.5818 11.9798 20ZM19.998 24C22.2121 24 24.007 22.2091 24.007 20C24.007 17.7909 22.2121 16 19.998 16C17.7838 16 15.9889 17.7909 15.9889 20C15.9889 22.2091 17.7838 24 19.998 24Z" fill="white"/>
</svg>
