<svg width="86" height="100" viewBox="0 0 86 100" fill="none" xmlns="http://www.w3.org/2000/svg">
<path d="M43 98.3334C38.1667 98.3334 33 97.1667 33 97.1667C14.8334 92.6667 1.33337 76.3334 1.33337 56.6667C1.33337 55.0001 1.33339 53.5001 1.66673 51.8334C7.00006 51.6667 13.3334 52.6667 11.5001 54.5001C8.66672 57.3334 10.0001 68.8334 15.8334 64.5001C21.6667 60.1667 24.5 54.5001 23 50.1667C21.5 45.8334 33 44.5001 33 51.6667C33 58.8334 30.1667 57.3334 28.6667 61.6667C27.1667 66.0001 30.1667 66.0001 31.5001 67.5001C33.0001 69.0001 37.1667 71.8334 33 81.8334C29.6667 89.3334 37.5 94.8334 43 98.3334ZM71.6667 59.5001C74.5 62.3334 68.8334 63.8334 67.3334 68.1667C65.8334 72.5 60.1667 72.5001 58.6667 71.0001C57.1667 69.5001 54.3334 68.1667 51.5001 66.6667C48.6667 65.1667 51.5 62.3334 54.3334 63.8334C57.1667 65.3334 58.3334 59.5001 61.5001 59.5001C63.1667 59.5001 68.8334 56.6667 71.6667 59.5001ZM58.8334 18.1667C70.6667 23 79.8334 33.3334 83.3334 45.8334C78 48.1667 69.5 49.1667 67.5 48.1667C64.6667 46.6667 64.6667 39.5001 59.5 39.3334C57.5 39.3334 55.1667 48.0001 52.3334 49.3334C49.5001 50.8334 48 45 45.1667 40.6667C42.3334 36.3334 49.5001 32.0001 52.3334 32.0001C55.1667 32.0001 55.1667 24.8334 55.1667 23.3334C55.1667 21.8334 52.3334 20.1667 53.1667 16.1667C56.3334 17.1667 58.8334 18.1667 58.8334 18.1667ZM44.8334 82.8334C46.3334 84.3334 47.6667 87.1667 46.3334 88.5001C44.8334 90.0001 42.0001 90.0001 40.6667 88.5001C38.5001 86.5001 43.5001 81.3334 44.8334 82.8334Z" fill="#50DD8E"/>
<path d="M46.3334 88.5001C47.8334 87.0001 46.3334 84.1668 44.8334 82.8334C43.3334 81.3334 38.5001 86.5001 40.5001 88.5001C42.0001 90.0001 44.8334 90.0001 46.3334 88.5001ZM67.3334 68.1667C68.8334 63.8334 74.5001 62.3334 71.6667 59.5001C68.8334 56.6668 63.0001 59.5001 61.6667 59.5001C58.5001 59.5001 57.3334 65.1667 54.5001 63.8334C51.6667 62.3334 48.8334 65.3334 51.6667 66.6667C54.5001 68.1667 57.3334 69.5001 58.8334 71.0001C60.1667 72.5001 66.0001 72.5001 67.3334 68.1667ZM84.3334 50.8334C84.6667 52.6667 84.6667 54.6667 84.6667 56.6667C84.6667 79.6667 66.0001 98.3334 43.0001 98.3334C37.5001 94.8334 29.6667 89.3334 33.0001 81.8334C37.3334 71.8334 33.0001 68.8334 31.5001 67.5001C30.0001 66.0001 27.1667 66.0001 28.6667 61.6667C30.1667 57.3334 33.0001 58.8334 33.0001 51.6667C33.0001 44.5001 21.5001 46.0001 23.0001 50.1667C24.5001 54.5001 21.5001 60.1668 15.8334 64.5001C10.1667 68.8334 8.66674 57.3334 11.5001 54.5001C13.5001 52.5001 7.16675 51.5001 1.66675 51.8334L2.66671 46.6667C3.83337 41.1667 8.16671 33.0001 11.8334 29.3334C11.8334 29.3334 14.0001 27.0001 16.5001 25.1667L23.0001 33.3334L29.6667 25.0001C31.0001 23.5001 33.6667 19.0001 34.5001 15.3334H34.8334C37.6667 14.8334 42.5001 15.0001 43.1667 15.0001C46.6667 15.0001 50.1667 15.5 53.3334 16.3334C52.5001 20.3334 55.3334 22.0001 55.3334 23.5001C55.3334 25.0001 55.3334 32.1667 52.5001 32.1667C49.6667 32.1667 42.5001 36.5001 45.3334 40.8334C48.1667 45.1667 49.6667 50.8334 52.5001 49.5001C55.3334 48.0001 57.6667 39.3334 59.6667 39.5001C64.6667 39.6668 64.6667 47.0001 67.6667 48.3334C69.6667 49.3334 78.1667 48.3334 83.5001 46.0001L84.3334 50.8334Z" fill="#80D6FA"/>
<path d="M24.6667 13.3334C24.6667 12.5 23.8334 11.6667 23 11.6667C22.1667 11.6667 21.3334 12.5 21.3334 13.3334C21.3334 14.1667 22.1667 15 23 15C23.8334 15 24.6667 14.1667 24.6667 13.3334ZM34.6667 13.3334C34.6667 14 34.5 14.6667 34.5 15.3334C33.6667 19.0001 31.1667 23.5 29.6667 25L23 33.3334L16.5001 25.1667L16.3334 25C14.6667 22.8334 11.3334 17.5 11.3334 13.3334C11.3334 6.83336 16.5 1.66669 23 1.66669C29.5 1.66669 34.6667 6.83336 34.6667 13.3334Z" fill="#FF7474"/>
<path d="M43 99.1667C42.8333 99.1667 42.6667 99.1667 42.5 99C38.3333 96.3334 28.3333 90.1667 32.1667 81.5C36 72.6667 32.8333 70.0001 31.3333 68.5001C31.1667 68.3334 31 68.1667 31 68.1667C30.6667 67.8334 30.3333 67.6667 29.8333 67.3334C28.5 66.5 26.5 65.3334 27.8333 61.5C28.5 59.6667 29.3333 58.8334 30 58C31.1667 56.8334 32 55.8334 32 51.8334C32 49.6667 30.6667 48.6667 29.6667 48.1667C27.6667 47.3334 25 47.6667 24 48.6667C23.3333 49.1667 23.5 49.8334 23.5 50.1667C25 54.8334 22 61 16 65.5C13.1666 67.6667 11.3333 66.1667 10.6667 65.3334C8.50001 62.6667 8.33334 56.3334 10.6667 54.1667C10.8333 54 10.8334 54 10.8334 54C10.5 53.5 6.83334 52.6667 2.33334 52.8334C2.16668 54.1667 2.16667 55.5001 2.16667 56.8334C2.16667 75.6667 14.8333 92 33.1667 96.5C33.6667 96.6667 33.8333 97.0001 33.8333 97.5001C33.6667 98.0001 33.3333 98.1667 32.8333 98.1667C13.8333 93.5 0.5 76.5001 0.5 56.8334C0.5 55.0001 0.666687 53.5001 0.833354 51.8334V51.6667C0.833354 51.5 0.99998 51.5 0.99998 51.3334C1.16665 51.1667 1.16667 51.1667 1.33333 51.1667H1.50001C2.00001 51.1667 11.1667 50.8334 12.3333 53.3334C12.5 53.6667 12.6666 54.5001 11.8333 55.1667C10.1666 56.8334 10.3333 62.1667 12 64.1667C12.5 64.6667 13.3333 65.3334 15.1666 64C20.6666 60 23.3333 54.5 22 50.5C21.6667 49.3334 21.8333 48.1667 22.8333 47.3334C24.5 45.8334 27.8333 45.5 30.3333 46.5C32.5 47.5 33.6667 49.3334 33.6667 51.6667C33.6667 56.5 32.3333 57.8334 31.1667 59C30.5 59.6667 29.8333 60.5001 29.3333 62.0001C28.5 64.6667 29.3333 65.1667 30.6667 65.8334C31.1667 66.1667 31.6667 66.5001 32 66.8334C32.1667 67.0001 32.1667 67 32.3333 67.1667C34.1667 68.8334 37.8333 72.3334 33.6667 82.1667C31 88.5 36.8333 93.5001 43.1667 97.5001C65.5 97.3334 83.8333 79.1667 83.8333 56.6667C83.8333 54.8334 83.6667 52.8334 83.5 51.0001C83.5 50.5001 83.8333 50.1667 84.1667 50C84.6667 50 85 50.3334 85.1667 50.6667C85.5 52.6667 85.5 54.6667 85.5 56.5C85.5 80.1667 66.5 99.1667 43 99.1667ZM43.5 90.5C42.1667 90.5 41 90.0001 40 89.1667C39.3333 88.5001 39.1667 87.5 39.3333 86.3334C39.8333 84.3334 41.8333 82.1667 43.5 81.8334C44.5 81.5001 45.1667 82 45.3333 82.1667C47 83.8334 48.6667 87.1667 46.8333 89.1667C46 90.0001 44.8333 90.5 43.5 90.5ZM44.1667 83.3334C43.8333 83.3334 42.5 84 41.6667 85.5C41.1667 86.3334 40.6667 87.5 41.1667 88C42.3333 89.1667 44.6667 89.1667 45.6667 88C46.6667 87 45.5 84.6667 44.1667 83.3334C44.3333 83.3334 44.3333 83.3334 44.1667 83.3334ZM61.6667 72.6667C60.1667 72.6667 58.8333 72.3334 58.1667 71.5C56.8333 70.1667 54 68.6667 51.1667 67.3334C49.3333 66.5 49.3333 65 49.6667 64.1667C50.3333 62.6667 52.5 62 54.6667 63C55.5 63.3334 56 63 57.3333 61.3334C58.3333 60 59.6667 58.5001 61.5 58.5001C61.6667 58.5001 62.3333 58.3334 63 58.1667C65.5 57.5 69.6667 56.3334 72.1667 58.8334C72.8333 59.5 73.1667 60.1667 73.1667 61.0001C73.1667 62.3334 72.1667 63.3334 71 64.5001C69.8333 65.5001 68.6667 66.8334 68.1667 68.3334C67.5 70.5 65.8333 71.8334 63.5 72.5C63 72.6667 62.3333 72.6667 61.6667 72.6667ZM52.8333 64.3334C52 64.3334 51.5 64.6667 51.3333 65C51.1667 65.3334 51.6667 65.6667 52 66.0001C54.8333 67.5001 57.8333 69 59.3333 70.5C59.8333 71 61.3333 71.3334 63.1667 71.0001C64.1667 70.8334 66 70 66.6667 68C67.3333 66 68.8333 64.5001 70 63.5001C70.8333 62.6667 71.6667 61.8334 71.6667 61.3334C71.6667 61 71.5 60.6667 71.1667 60.3334C69.3333 58.5001 66 59.5001 63.6667 60.1667C62.8333 60.5001 62.1667 60.6667 61.6667 60.6667C60.5 60.6667 59.6667 61.6667 58.8333 62.8334C57.6667 64.1667 56.3333 66 54.1667 64.8334C53.6667 64.3334 53.3333 64.3334 52.8333 64.3334ZM51.3333 50.3334C49.3333 50.3334 48 47.6667 46.6667 45C46 43.6667 45.3333 42.3334 44.5 41.0001C43.5 39.5001 43.5 37.8334 44.3333 36.1667C46 33.1667 50.3333 31.0001 52.3333 31.0001C53.3333 31.0001 54.3333 29 54.3333 23.1667C54.3333 23 54 22.5001 53.6667 22.0001C53 20.8334 51.8333 19.1667 52.1667 16.6667C48.6667 15.8334 44.8333 15.5 41.1667 15.6667C40.6667 15.6667 40.3333 15.3334 40.3333 14.8334C40.3333 14.3334 40.6667 14 41.1667 14C45.1667 13.8334 49.3333 14.3334 53.3333 15.3334C53.8333 15.5001 54 15.8334 54 16.3334C53.5 18.6667 54.3333 20.0001 55.1667 21.1667C55.6667 21.8334 56 22.5 56 23.1667C56 29.5 54.8333 32.6667 52.3333 32.6667C50.6667 32.6667 47 34.5001 45.6667 36.8334C45 38.0001 45.1667 39 45.8333 40C46.6667 41.3334 47.5 42.8334 48.1667 44C49.8333 47.3334 50.8333 48.8334 52 48.3334C53.1667 47.6667 54.5 45.1667 55.5 43C57 40.1667 57.8333 38.1667 59.5 38.1667C63 38.3334 64.5 41.3334 65.6667 43.8334C66.3333 45.3334 67 46.6667 67.8333 47.1667C69.3333 48 76.8333 47.1667 82.3333 45.1667C78.8333 33.3334 70 23.5 58.5 18.8334C58 18.6667 57.8333 18.1667 58 17.6667C58.1667 17.1667 58.6667 17 59.1667 17.1667C71.3333 22.1667 80.6667 32.6667 84.1667 45.3334V45.5C84.1667 45.6667 84.1667 45.6667 84.1667 45.8334C84.1667 46 84 46.0001 84 46.1667L83.8333 46.3334C78.5 48.6667 69.6667 49.8334 67.3333 48.6667C66 48.0001 65.1667 46.3334 64.3333 44.6667C63.1667 42.3334 62.1667 40.1667 59.6667 40C59.1667 40.1667 58 42.5 57.1667 44C55.8333 46.5 54.5 49.1667 52.8333 50C52.1667 50.1667 51.8333 50.3334 51.3333 50.3334ZM2.50002 47.5H2.33334C1.83334 47.3334 1.66669 47 1.66669 46.5C3.00002 40.6667 7.33331 32.5 11 28.8334C11.3333 28.5 11.8333 28.5 12.1667 28.8334C12.5 29.1667 12.5 29.6667 12.1667 30C8.66667 33.3334 4.50002 41.5001 3.33335 46.8334C3.33335 47.1667 3.00002 47.5 2.50002 47.5ZM23 34.1667C22.6667 34.1667 22.5 34 22.3333 33.8334L15.6667 25.5C13.6667 22.8334 10.5 17.5 10.5 13.3334C10.5 6.50004 16.1667 0.833374 23 0.833374C29.8333 0.833374 35.5 6.50004 35.5 13.3334C35.5 17.8334 31.8333 23.8334 30.3333 25.5L23.6667 33.8334C23.5 34 23.3333 34.1667 23 34.1667ZM23 2.50004C17 2.50004 12.1667 7.33337 12.1667 13.3334C12.1667 17 15.3333 22.3334 17 24.5001L23 32.0001L29 24.5001C30.6667 22.5001 33.8333 17 33.8333 13.3334C33.8333 7.33337 29 2.50004 23 2.50004ZM23 15.8334C21.6667 15.8334 20.5 14.6667 20.5 13.3334C20.5 12 21.6667 10.8334 23 10.8334C24.3333 10.8334 25.5 12 25.5 13.3334C25.5 14.6667 24.3333 15.8334 23 15.8334ZM23 12.5C22.5 12.5 22.1667 12.8334 22.1667 13.3334C22.1667 13.8334 22.5 14.1667 23 14.1667C23.5 14.1667 23.8333 13.8334 23.8333 13.3334C23.8333 12.8334 23.5 12.5 23 12.5Z" fill="#51565F"/>
</svg>
